<?xml version="1.0" encoding="UTF-8"?>
<!DOCTYPE svg PUBLIC "-//W3C//DTD SVG 1.1//EN"
    "http://www.w3.org/Graphics/SVG/1.1/DTD/svg11.dtd"><svg xmlns="http://www.w3.org/2000/svg" height="600.0000" stroke-opacity="1" viewBox="0 0 1800 600" font-size="1" width="1800.0000" xmlns:xlink="http://www.w3.org/1999/xlink" stroke="rgb(0,0,0)" version="1.1"><defs></defs><g stroke-linejoin="bevel" stroke-opacity="0.0" fill-opacity="1.0" stroke="rgb(0,0,0)" stroke-width="0.0" fill="rgb(255,255,255)" stroke-linecap="butt" stroke-miterlimit="10.0"><path d="M 0.0000,0.0000 v 600.0000 h 1800.0000 v -600.0000 Z"/></g><g stroke-linejoin="miter" stroke-opacity="1.0" fill-opacity="0.0" stroke="rgb(211,211,211)" stroke-width="4.999999999999999" fill="rgb(0,0,0)" stroke-dashoffset="0.0" stroke-linecap="butt" stroke-miterlimit="10.0" stroke-dasharray="39.99999999999999,19.999999999999996"><path d="M 95.3361,510.0000 h 1615.4412 "/></g><g stroke-linejoin="miter" stroke-opacity="1.0" fill-opacity="0.0" stroke="rgb(211,211,211)" stroke-width="4.999999999999999" fill="rgb(0,0,0)" stroke-dashoffset="0.0" stroke-linecap="butt" stroke-miterlimit="10.0" stroke-dasharray="39.99999999999999,19.999999999999996"><path d="M 95.3361,420.0000 h 1615.4412 "/></g><g stroke-linejoin="miter" stroke-opacity="1.0" fill-opacity="0.0" stroke="rgb(211,211,211)" stroke-width="4.999999999999999" fill="rgb(0,0,0)" stroke-dashoffset="0.0" stroke-linecap="butt" stroke-miterlimit="10.0" stroke-dasharray="39.99999999999999,19.999999999999996"><path d="M 95.3361,330.0000 h 1615.4412 "/></g><g stroke-linejoin="miter" stroke-opacity="1.0" fill-opacity="0.0" stroke="rgb(211,211,211)" stroke-width="4.999999999999999" fill="rgb(0,0,0)" stroke-dashoffset="0.0" stroke-linecap="butt" stroke-miterlimit="10.0" stroke-dasharray="39.99999999999999,19.999999999999996"><path d="M 95.3361,240.0000 h 1615.4412 "/></g><g stroke-linejoin="miter" stroke-opacity="1.0" fill-opacity="0.0" stroke="rgb(211,211,211)" stroke-width="4.999999999999999" fill="rgb(0,0,0)" stroke-dashoffset="0.0" stroke-linecap="butt" stroke-miterlimit="10.0" stroke-dasharray="39.99999999999999,19.999999999999996"><path d="M 95.3361,150.0000 h 1615.4412 "/></g><g stroke-linejoin="miter" stroke-opacity="1.0" fill-opacity="0.0" stroke="rgb(211,211,211)" stroke-width="4.999999999999999" fill="rgb(0,0,0)" stroke-dashoffset="0.0" stroke-linecap="butt" stroke-miterlimit="10.0" stroke-dasharray="39.99999999999999,19.999999999999996"><path d="M 95.3361,60.0000 h 1615.4412 "/></g><g stroke-linejoin="bevel" stroke-opacity="0.0" fill-opacity="1.0" stroke="rgb(0,0,0)" stroke-width="0.0" fill="rgb(70,130,180)" stroke-linecap="butt" stroke-miterlimit="10.0"><defs><clipPath id="myClip1"><path d="M 95.3361,60.0000 v 450.0000 h 1615.4412 v -450.0000 Z"/></clipPath></defs><g clip-path="url(#myClip1)"><path d="M 135.3361,330.0000 v -90.0000 h 458.4804 v 90.0000 Z"/></g></g><g stroke-linejoin="bevel" stroke-opacity="0.0" fill-opacity="1.0" stroke="rgb(0,0,0)" stroke-width="0.0" fill="rgb(70,130,180)" stroke-linecap="butt" stroke-miterlimit="10.0"><defs><clipPath id="myClip2"><path d="M 95.3361,60.0000 v 450.0000 h 1615.4412 v -450.0000 Z"/></clipPath></defs><g clip-path="url(#myClip2)"><path d="M 673.8165,330.0000 v 180.0000 h 458.4804 v -180.0000 Z"/></g></g><g stroke-linejoin="bevel" stroke-opacity="0.0" fill-opacity="1.0" stroke="rgb(0,0,0)" stroke-width="0.0" fill="rgb(70,130,180)" stroke-linecap="butt" stroke-miterlimit="10.0"><defs><clipPath id="myClip3"><path d="M 95.3361,60.0000 v 450.0000 h 1615.4412 v -450.0000 Z"/></clipPath></defs><g clip-path="url(#myClip3)"><path d="M 1212.2969,330.0000 v -270.0000 h 458.4804 v 270.0000 Z"/></g></g><g stroke-linejoin="miter" stroke-opacity="1.0" fill-opacity="0.0" stroke="rgb(0,0,0)" stroke-width="4.999999999999999" fill="rgb(0,0,0)" stroke-linecap="square" stroke-miterlimit="10.0"><path d="M 95.3361,510.0000 v -450.0000 "/></g><g stroke-linejoin="miter" stroke-opacity="1.0" fill-opacity="0.0" stroke="rgb(0,0,0)" stroke-width="4.999999999999999" fill="rgb(0,0,0)" stroke-linecap="butt" stroke-miterlimit="10.0"><path d="M 95.3361,510.0000 h 2.0000 "/></g><g stroke-linejoin="miter" stroke-opacity="1.0" fill-opacity="0.0" stroke="rgb(0,0,0)" stroke-width="4.999999999999999" fill="rgb(0,0,0)" stroke-linecap="butt" stroke-miterlimit="10.0"><path d="M 95.3361,420.0000 h 2.0000 "/></g><g stroke-linejoin="miter" stroke-opacity="1.0" fill-opacity="0.0" stroke="rgb(0,0,0)" stroke-width="4.999999999999999" fill="rgb(0,0,0)" stroke-linecap="butt" stroke-miterlimit="10.0"><path d="M 95.3361,330.0000 h 2.0000 "/></g><g stroke-linejoin="miter" stroke-opacity="1.0" fill-opacity="0.0" stroke="rgb(0,0,0)" stroke-width="4.999999999999999" fill="rgb(0,0,0)" stroke-linecap="butt" stroke-miterlimit="10.0"><path d="M 95.3361,240.0000 h 2.0000 "/></g><g stroke-linejoin="miter" stroke-opacity="1.0" fill-opacity="0.0" stroke="rgb(0,0,0)" stroke-width="4.999999999999999" fill="rgb(0,0,0)" stroke-linecap="butt" stroke-miterlimit="10.0"><path d="M 95.3361,150.0000 h 2.0000 "/></g><g stroke-linejoin="miter" stroke-opacity="1.0" fill-opacity="0.0" stroke="rgb(0,0,0)" stroke-width="4.999999999999999" fill="rgb(0,0,0)" stroke-linecap="butt" stroke-miterlimit="10.0"><path d="M 95.3361,60.0000 h 2.0000 "/></g><g stroke-linejoin="miter" stroke-opacity="1.0" fill-opacity="0.0" stroke="rgb(0,0,0)" stroke-width="4.999999999999999" fill="rgb(0,0,0)" stroke-linecap="butt" stroke-miterlimit="10.0"><path d="M 95.3361,510.0000 h 5.0000 "/></g><g stroke-linejoin="miter" stroke-opacity="1.0" fill-opacity="0.0" stroke="rgb(0,0,0)" stroke-width="4.999999999999999" fill="rgb(0,0,0)" stroke-linecap="butt" stroke-miterlimit="10.0"><path d="M 95.3361,420.0000 h 5.0000 "/></g><g stroke-linejoin="miter" stroke-opacity="1.0" fill-opacity="0.0" stroke="rgb(0,0,0)" stroke-width="4.999999999999999" fill="rgb(0,0,0)" stroke-linecap="butt" stroke-miterlimit="10.0"><path d="M 95.3361,330.0000 h 5.0000 "/></g><g stroke-linejoin="miter" stroke-opacity="1.0" fill-opacity="0.0" stroke="rgb(0,0,0)" stroke-width="4.999999999999999" fill="rgb(0,0,0)" stroke-linecap="butt" stroke-miterlimit="10.0"><path d="M 95.3361,240.0000 h 5.0000 "/></g><g stroke-linejoin="miter" stroke-opacity="1.0" fill-opacity="0.0" stroke="rgb(0,0,0)" stroke-width="4.999999999999999" fill="rgb(0,0,0)" stroke-linecap="butt" stroke-miterlimit="10.0"><path d="M 95.3361,150.0000 h 5.0000 "/></g><g stroke-linejoin="miter" stroke-opacity="1.0" fill-opacity="0.0" stroke="rgb(0,0,0)" stroke-width="4.999999999999999" fill="rgb(0,0,0)" stroke-linecap="butt" stroke-miterlimit="10.0"><path d="M 95.3361,60.0000 h 5.0000 "/></g><g stroke-linejoin="bevel" stroke-opacity="0.0" fill-opacity="1.0" stroke="rgb(0,0,0)" stroke-width="0.0" fill="rgb(0,0,0)" stroke-linecap="butt" stroke-miterlimit="10.0"><path d="M 40.0000,523.7815 ZM 41.7227,511.9328 h 9.6639 v 2.6471 h -9.6639 v -2.6471 ZM 53.0672,523.7815 ZM 54.7479,521.7227 c 3.0252,-3.0252 5.3782,-5.4622 5.3782 -5.4622c 2.3529,-2.4370 3.9496,-4.5168 3.9496 -4.5168c 1.5966,-2.0798 2.4370,-3.8235 2.4370 -3.8235c 0.8403,-1.7437 0.8403,-3.3824 0.8403 -3.3824c 0.0000,-2.3109 -1.2605,-3.7815 -1.2605 -3.7815c -1.2605,-1.4706 -3.8235,-1.4706 -3.8235 -1.4706c -1.6807,-0.0000 -3.1092,0.9454 -3.1092 0.9454c -1.4286,0.9454 -2.6050,2.2899 -2.6050 2.2899l -1.9748,-1.9748 c 1.6807,-1.8487 3.5714,-2.9622 3.5714 -2.9622c 1.8908,-1.1134 4.5378,-1.1134 4.5378 -1.1134c 3.7395,0.0000 5.8824,2.1639 5.8824 2.1639c 2.1429,2.1639 2.1429,5.7353 2.1429 5.7353c 0.0000,1.8908 -0.8193,3.8025 -0.8193 3.8025c -0.8193,1.9118 -2.2689,3.9496 -2.2689 3.9496c -1.4496,2.0378 -3.4454,4.2437 -3.4454 4.2437c -1.9958,2.2059 -4.3908,4.6849 -4.3908 4.6849c 1.0924,-0.0840 2.2689,-0.1681 2.2689 -0.1681c 1.1765,-0.0840 2.2269,-0.0840 2.2269 -0.0840h 7.7731 v 2.9832 h -17.3109 v -2.0588 Z"/></g><g stroke-linejoin="bevel" stroke-opacity="0.0" fill-opacity="1.0" stroke="rgb(0,0,0)" stroke-width="0.0" fill="rgb(0,0,0)" stroke-linecap="butt" stroke-miterlimit="10.0"><path d="M 40.5462,433.7815 ZM 42.2689,421.9328 h 9.6639 v 2.6471 h -9.6639 v -2.6471 ZM 53.6134,433.7815 ZM 56.9328,430.9244 h 6.1345 v -19.7479 h -4.8739 v -2.2269 c 1.8487,-0.3361 3.2143,-0.8193 3.2143 -0.8193c 1.3655,-0.4832 2.4580,-1.1555 2.4580 -1.1555h 2.6471 v 23.9496 h 5.5462 v 2.8571 h -15.1261 v -2.8571 Z"/></g><g stroke-linejoin="bevel" stroke-opacity="0.0" fill-opacity="1.0" stroke="rgb(0,0,0)" stroke-width="0.0" fill="rgb(0,0,0)" stroke-linecap="butt" stroke-miterlimit="10.0"><path d="M 53.1513,343.7815 ZM 63.6134,344.2857 c -4.0756,-0.0000 -6.3445,-3.6134 -6.3445 -3.6134c -2.2689,-3.6134 -2.2689,-10.3782 -2.2689 -10.3782c 0.0000,-6.7647 2.2689,-10.2941 2.2689 -10.2941c 2.2689,-3.5294 6.3445,-3.5294 6.3445 -3.5294c 4.0336,0.0000 6.3025,3.5294 6.3025 3.5294c 2.2689,3.5294 2.2689,10.2941 2.2689 10.2941c 0.0000,6.7647 -2.2689,10.3782 -2.2689 10.3782c -2.2689,3.6134 -6.3025,3.6134 -6.3025 3.6134ZM 63.6134,344.2857 ZM 63.6134,341.5126 c 1.1765,0.0000 2.1218,-0.6513 2.1218 -0.6513c 0.9454,-0.6513 1.6387,-2.0168 1.6387 -2.0168c 0.6933,-1.3655 1.0714,-3.4874 1.0714 -3.4874c 0.3782,-2.1218 0.3782,-5.0630 0.3782 -5.0630c 0.0000,-2.9412 -0.3782,-5.0420 -0.3782 -5.0420c -0.3782,-2.1008 -1.0714,-3.4244 -1.0714 -3.4244c -0.6933,-1.3235 -1.6387,-1.9538 -1.6387 -1.9538c -0.9454,-0.6303 -2.1218,-0.6303 -2.1218 -0.6303c -1.1765,-0.0000 -2.1429,0.6303 -2.1429 0.6303c -0.9664,0.6303 -1.6597,1.9538 -1.6597 1.9538c -0.6933,1.3235 -1.0714,3.4244 -1.0714 3.4244c -0.3782,2.1008 -0.3782,5.0420 -0.3782 5.0420c 0.0000,5.8824 1.4496,8.5504 1.4496 8.5504c 1.4496,2.6681 3.8025,2.6681 3.8025 2.6681Z"/></g><g stroke-linejoin="bevel" stroke-opacity="0.0" fill-opacity="1.0" stroke="rgb(0,0,0)" stroke-width="0.0" fill="rgb(0,0,0)" stroke-linecap="butt" stroke-miterlimit="10.0"><path d="M 55.2101,253.7815 ZM 58.5294,250.9244 h 6.1345 v -19.7479 h -4.8739 v -2.2269 c 1.8487,-0.3361 3.2143,-0.8193 3.2143 -0.8193c 1.3655,-0.4832 2.4580,-1.1555 2.4580 -1.1555h 2.6471 v 23.9496 h 5.5462 v 2.8571 h -15.1261 v -2.8571 Z"/></g><g stroke-linejoin="bevel" stroke-opacity="0.0" fill-opacity="1.0" stroke="rgb(0,0,0)" stroke-width="0.0" fill="rgb(0,0,0)" stroke-linecap="butt" stroke-miterlimit="10.0"><path d="M 52.8571,163.7815 ZM 54.5378,161.7227 c 3.0252,-3.0252 5.3782,-5.4622 5.3782 -5.4622c 2.3529,-2.4370 3.9496,-4.5168 3.9496 -4.5168c 1.5966,-2.0798 2.4370,-3.8235 2.4370 -3.8235c 0.8403,-1.7437 0.8403,-3.3824 0.8403 -3.3824c 0.0000,-2.3109 -1.2605,-3.7815 -1.2605 -3.7815c -1.2605,-1.4706 -3.8235,-1.4706 -3.8235 -1.4706c -1.6807,-0.0000 -3.1092,0.9454 -3.1092 0.9454c -1.4286,0.9454 -2.6050,2.2899 -2.6050 2.2899l -1.9748,-1.9748 c 1.6807,-1.8487 3.5714,-2.9622 3.5714 -2.9622c 1.8908,-1.1134 4.5378,-1.1134 4.5378 -1.1134c 3.7395,0.0000 5.8824,2.1639 5.8824 2.1639c 2.1429,2.1639 2.1429,5.7353 2.1429 5.7353c 0.0000,1.8908 -0.8193,3.8025 -0.8193 3.8025c -0.8193,1.9118 -2.2689,3.9496 -2.2689 3.9496c -1.4496,2.0378 -3.4454,4.2437 -3.4454 4.2437c -1.9958,2.2059 -4.3908,4.6849 -4.3908 4.6849c 1.0924,-0.0840 2.2689,-0.1681 2.2689 -0.1681c 1.1765,-0.0840 2.2269,-0.0840 2.2269 -0.0840h 7.7731 v 2.9832 h -17.3109 v -2.0588 Z"/></g><g stroke-linejoin="bevel" stroke-opacity="0.0" fill-opacity="1.0" stroke="rgb(0,0,0)" stroke-width="0.0" fill="rgb(0,0,0)" stroke-linecap="butt" stroke-miterlimit="10.0"><path d="M 52.6891,73.7815 ZM 55.5462,68.2353 c 1.2185,1.2605 2.8361,2.2269 2.8361 2.2269c 1.6176,0.9664 4.0126,0.9664 4.0126 0.9664c 2.4370,0.0000 3.9916,-1.3235 3.9916 -1.3235c 1.5546,-1.3235 1.5546,-3.5924 1.5546 -3.5924c 0.0000,-1.1765 -0.4412,-2.1639 -0.4412 -2.1639c -0.4412,-0.9874 -1.4496,-1.7017 -1.4496 -1.7017c -1.0084,-0.7143 -2.6471,-1.0924 -2.6471 -1.0924c -1.6387,-0.3782 -4.0336,-0.3782 -4.0336 -0.3782v -2.6471 c 2.1429,0.0000 3.5924,-0.3782 3.5924 -0.3782c 1.4496,-0.3782 2.3529,-1.0504 2.3529 -1.0504c 0.9034,-0.6723 1.2815,-1.5966 1.2815 -1.5966c 0.3782,-0.9244 0.3782,-1.9748 0.3782 -1.9748c 0.0000,-1.9748 -1.2395,-3.1092 -1.2395 -3.1092c -1.2395,-1.1345 -3.3824,-1.1345 -3.3824 -1.1345c -1.6807,-0.0000 -3.0882,0.7563 -3.0882 0.7563c -1.4076,0.7563 -2.6261,1.9748 -2.6261 1.9748l -1.8487,-2.1849 c 1.5546,-1.4706 3.4244,-2.4160 3.4244 -2.4160c 1.8697,-0.9454 4.2647,-0.9454 4.2647 -0.9454c 1.7647,0.0000 3.2353,0.4622 3.2353 0.4622c 1.4706,0.4622 2.5420,1.3235 2.5420 1.3235c 1.0714,0.8613 1.6597,2.1218 1.6597 2.1218c 0.5882,1.2605 0.5882,2.8992 0.5882 2.8992c 0.0000,2.4370 -1.3445,3.9916 -1.3445 3.9916c -1.3445,1.5546 -3.5294,2.3950 -3.5294 2.3950v 0.1681 c 1.2185,0.2941 2.2689,0.8613 2.2689 0.8613c 1.0504,0.5672 1.8487,1.4286 1.8487 1.4286c 0.7983,0.8613 1.2395,1.9958 1.2395 1.9958c 0.4412,1.1345 0.4412,2.5210 0.4412 2.5210c 0.0000,1.7647 -0.6933,3.1933 -0.6933 3.1933c -0.6933,1.4286 -1.8908,2.4160 -1.8908 2.4160c -1.1975,0.9874 -2.7941,1.5126 -2.7941 1.5126c -1.5966,0.5252 -3.4454,0.5252 -3.4454 0.5252c -1.5966,-0.0000 -2.9202,-0.3151 -2.9202 -0.3151c -1.3235,-0.3151 -2.4160,-0.8403 -2.4160 -0.8403c -1.0924,-0.5252 -1.9538,-1.1975 -1.9538 -1.1975c -0.8613,-0.6723 -1.5336,-1.4286 -1.5336 -1.4286Z"/></g><g stroke-linejoin="miter" stroke-opacity="1.0" fill-opacity="0.0" stroke="rgb(0,0,0)" stroke-width="4.999999999999999" fill="rgb(0,0,0)" stroke-linecap="square" stroke-miterlimit="10.0"><path d="M 95.3361,510.0000 h 1615.4412 "/></g><g stroke-linejoin="bevel" stroke-opacity="0.0" fill-opacity="1.0" stroke="rgb(0,0,0)" stroke-width="0.0" fill="rgb(0,0,0)" stroke-linecap="butt" stroke-miterlimit="10.0"><path d="M 330.6057,560.0000 ZM 344.5553,560.5042 c -2.6050,-0.0000 -4.7689,-1.0084 -4.7689 -1.0084c -2.1639,-1.0084 -3.7185,-2.8782 -3.7185 -2.8782c -1.5546,-1.8697 -2.4160,-4.5378 -2.4160 -4.5378c -0.8613,-2.6681 -0.8613,-5.9874 -0.8613 -5.9874c 0.0000,-3.3193 0.8613,-5.9454 0.8613 -5.9454c 0.8613,-2.6261 2.4160,-4.4538 2.4160 -4.4538c 1.5546,-1.8277 3.7185,-2.7941 3.7185 -2.7941c 2.1639,-0.9664 4.7689,-0.9664 4.7689 -0.9664c 2.6050,0.0000 4.7689,0.9874 4.7689 0.9874c 2.1639,0.9874 3.7395,2.8151 3.7395 2.8151c 1.5756,1.8277 2.4370,4.4538 2.4370 4.4538c 0.8613,2.6261 0.8613,5.9034 0.8613 5.9034c 0.0000,3.3193 -0.8613,5.9874 -0.8613 5.9874c -0.8613,2.6681 -2.4370,4.5378 -2.4370 4.5378c -1.5756,1.8697 -3.7395,2.8782 -3.7395 2.8782c -2.1639,1.0084 -4.7689,1.0084 -4.7689 1.0084ZM 344.5553,560.5042 ZM 344.5553,557.4370 c 1.8487,0.0000 3.3403,-0.7983 3.3403 -0.7983c 1.4916,-0.7983 2.5630,-2.2899 2.5630 -2.2899c 1.0714,-1.4916 1.6597,-3.5714 1.6597 -3.5714c 0.5882,-2.0798 0.5882,-4.6849 0.5882 -4.6849c 0.0000,-2.5630 -0.5882,-4.6218 -0.5882 -4.6218c -0.5882,-2.0588 -1.6597,-3.4874 -1.6597 -3.4874c -1.0714,-1.4286 -2.5630,-2.2059 -2.5630 -2.2059c -1.4916,-0.7773 -3.3403,-0.7773 -3.3403 -0.7773c -1.8487,-0.0000 -3.3403,0.7773 -3.3403 0.7773c -1.4916,0.7773 -2.5630,2.2059 -2.5630 2.2059c -1.0714,1.4286 -1.6597,3.4874 -1.6597 3.4874c -0.5882,2.0588 -0.5882,4.6218 -0.5882 4.6218c 0.0000,2.6050 0.5882,4.6849 0.5882 4.6849c 0.5882,2.0798 1.6597,3.5714 1.6597 3.5714c 1.0714,1.4916 2.5630,2.2899 2.5630 2.2899c 1.4916,0.7983 3.3403,0.7983 3.3403 0.7983ZM 358.5049,560.0000 ZM 361.9503,539.5798 h 2.8571 l 0.2941,2.9412 h 0.1261 c 1.4706,-1.4706 3.0882,-2.4580 3.0882 -2.4580c 1.6176,-0.9874 3.7605,-0.9874 3.7605 -0.9874c 3.2353,0.0000 4.7269,2.0168 4.7269 2.0168c 1.4916,2.0168 1.4916,5.9664 1.4916 5.9664v 12.9412 h -3.4454 v -12.4790 c 0.0000,-2.8992 -0.9244,-4.1807 -0.9244 -4.1807c -0.9244,-1.2815 -2.9412,-1.2815 -2.9412 -1.2815c -1.5966,-0.0000 -2.8151,0.7983 -2.8151 0.7983c -1.2185,0.7983 -2.7731,2.3529 -2.7731 2.3529v 14.7899 h -3.4454 v -20.4202 ZM 381.4881,560.0000 ZM 383.4209,549.8319 c 0.0000,-2.5210 0.7773,-4.5168 0.7773 -4.5168c 0.7773,-1.9958 2.0588,-3.3824 2.0588 -3.3824c 1.2815,-1.3866 2.9202,-2.1218 2.9202 -2.1218c 1.6387,-0.7353 3.4034,-0.7353 3.4034 -0.7353c 1.9328,0.0000 3.4664,0.6723 3.4664 0.6723c 1.5336,0.6723 2.5630,1.9328 2.5630 1.9328c 1.0294,1.2605 1.5756,3.0252 1.5756 3.0252c 0.5462,1.7647 0.5462,3.9496 0.5462 3.9496c 0.0000,1.1345 -0.1261,1.8908 -0.1261 1.8908h -13.7815 c 0.2101,3.3193 2.0378,5.2521 2.0378 5.2521c 1.8277,1.9328 4.7689,1.9328 4.7689 1.9328c 1.4706,0.0000 2.7101,-0.4412 2.7101 -0.4412c 1.2395,-0.4412 2.3739,-1.1555 2.3739 -1.1555l 1.2185,2.2689 c -1.3445,0.8403 -2.9832,1.4706 -2.9832 1.4706c -1.6387,0.6303 -3.7395,0.6303 -3.7395 0.6303c -2.0588,-0.0000 -3.8445,-0.7353 -3.8445 -0.7353c -1.7857,-0.7353 -3.1092,-2.1008 -3.1092 -2.1008c -1.3235,-1.3655 -2.0798,-3.3403 -2.0798 -3.3403c -0.7563,-1.9748 -0.7563,-4.4958 -0.7563 -4.4958ZM 383.4209,549.8319 ZM 397.7066,548.2773 c 0.0000,-3.1513 -1.3235,-4.8109 -1.3235 -4.8109c -1.3235,-1.6597 -3.7185,-1.6597 -3.7185 -1.6597c -1.0924,-0.0000 -2.0798,0.4412 -2.0798 0.4412c -0.9874,0.4412 -1.7857,1.2605 -1.7857 1.2605c -0.7983,0.8193 -1.3235,2.0168 -1.3235 2.0168c -0.5252,1.1975 -0.6933,2.7521 -0.6933 2.7521h 10.9244 Z"/></g><g stroke-linejoin="bevel" stroke-opacity="0.0" fill-opacity="1.0" stroke="rgb(0,0,0)" stroke-width="0.0" fill="rgb(0,0,0)" stroke-linecap="butt" stroke-miterlimit="10.0"><path d="M 790.9559,560.0000 ZM 794.7374,532.4370 h 3.6134 l 9.9580,17.3109 l 2.9832,5.7143 h 0.1681 c -0.1261,-2.1008 -0.2731,-4.3487 -0.2731 -4.3487c -0.1471,-2.2479 -0.1471,-4.4328 -0.1471 -4.4328v -14.2437 h 3.3193 v 27.5630 h -3.6134 l -10.0000,-17.3529 l -2.9832,-5.6723 h -0.1681 c 0.1681,2.1008 0.3151,4.2647 0.3151 4.2647c 0.1471,2.1639 0.1471,4.3487 0.1471 4.3487v 14.4118 h -3.3193 v -27.5630 ZM 818.1408,560.0000 ZM 820.0735,549.8319 c 0.0000,-2.5210 0.7773,-4.5168 0.7773 -4.5168c 0.7773,-1.9958 2.0588,-3.3824 2.0588 -3.3824c 1.2815,-1.3866 2.9202,-2.1218 2.9202 -2.1218c 1.6387,-0.7353 3.4034,-0.7353 3.4034 -0.7353c 1.9328,0.0000 3.4664,0.6723 3.4664 0.6723c 1.5336,0.6723 2.5630,1.9328 2.5630 1.9328c 1.0294,1.2605 1.5756,3.0252 1.5756 3.0252c 0.5462,1.7647 0.5462,3.9496 0.5462 3.9496c 0.0000,1.1345 -0.1261,1.8908 -0.1261 1.8908h -13.7815 c 0.2101,3.3193 2.0378,5.2521 2.0378 5.2521c 1.8277,1.9328 4.7689,1.9328 4.7689 1.9328c 1.4706,0.0000 2.7101,-0.4412 2.7101 -0.4412c 1.2395,-0.4412 2.3739,-1.1555 2.3739 -1.1555l 1.2185,2.2689 c -1.3445,0.8403 -2.9832,1.4706 -2.9832 1.4706c -1.6387,0.6303 -3.7395,0.6303 -3.7395 0.6303c -2.0588,-0.0000 -3.8445,-0.7353 -3.8445 -0.7353c -1.7857,-0.7353 -3.1092,-2.1008 -3.1092 -2.1008c -1.3235,-1.3655 -2.0798,-3.3403 -2.0798 -3.3403c -0.7563,-1.9748 -0.7563,-4.4958 -0.7563 -4.4958ZM 820.0735,549.8319 ZM 834.3592,548.2773 c 0.0000,-3.1513 -1.3235,-4.8109 -1.3235 -4.8109c -1.3235,-1.6597 -3.7185,-1.6597 -3.7185 -1.6597c -1.0924,-0.0000 -2.0798,0.4412 -2.0798 0.4412c -0.9874,0.4412 -1.7857,1.2605 -1.7857 1.2605c -0.7983,0.8193 -1.3235,2.0168 -1.3235 2.0168c -0.5252,1.1975 -0.6933,2.7521 -0.6933 2.7521h 10.9244 ZM 838.5609,560.0000 ZM 843.4769,563.4454 c 0.0000,1.6387 1.5756,2.6050 1.5756 2.6050c 1.5756,0.9664 4.3487,0.9664 4.3487 0.9664c 1.4706,0.0000 2.6681,-0.3571 2.6681 -0.3571c 1.1975,-0.3571 2.0378,-0.9244 2.0378 -0.9244c 0.8403,-0.5672 1.3025,-1.3235 1.3025 -1.3235c 0.4622,-0.7563 0.4622,-1.5546 0.4622 -1.5546c 0.0000,-1.4286 -1.0504,-1.9748 -1.0504 -1.9748c -1.0504,-0.5462 -3.0672,-0.5462 -3.0672 -0.5462h -3.5294 c -0.5882,-0.0000 -1.2815,-0.0630 -1.2815 -0.0630c -0.6933,-0.0630 -1.3655,-0.2731 -1.3655 -0.2731c -1.0924,0.7983 -1.5966,1.6807 -1.5966 1.6807c -0.5042,0.8824 -0.5042,1.7647 -0.5042 1.7647ZM 843.4769,563.4454 ZM 840.4517,563.9076 c 0.0000,-1.3025 0.7983,-2.4790 0.7983 -2.4790c 0.7983,-1.1765 2.1849,-2.1429 2.1849 -2.1429v -0.1681 c -0.7563,-0.4622 -1.2815,-1.2815 -1.2815 -1.2815c -0.5252,-0.8193 -0.5252,-2.0378 -0.5252 -2.0378c 0.0000,-1.3025 0.7143,-2.2689 0.7143 -2.2689c 0.7143,-0.9664 1.5126,-1.5126 1.5126 -1.5126v -0.1681 c -1.0084,-0.8403 -1.8277,-2.2479 -1.8277 -2.2479c -0.8193,-1.4076 -0.8193,-3.2563 -0.8193 -3.2563c 0.0000,-1.6807 0.6092,-3.0252 0.6092 -3.0252c 0.6092,-1.3445 1.6597,-2.2899 1.6597 -2.2899c 1.0504,-0.9454 2.4580,-1.4496 2.4580 -1.4496c 1.4076,-0.5042 2.9622,-0.5042 2.9622 -0.5042c 0.8403,0.0000 1.5756,0.1471 1.5756 0.1471c 0.7353,0.1471 1.3235,0.3571 1.3235 0.3571h 7.1008 v 2.6471 h -4.2017 c 0.7143,0.7143 1.1975,1.8067 1.1975 1.8067c 0.4832,1.0924 0.4832,2.3950 0.4832 2.3950c 0.0000,1.6387 -0.5882,2.9622 -0.5882 2.9622c -0.5882,1.3235 -1.5966,2.2269 -1.5966 2.2269c -1.0084,0.9034 -2.3739,1.4076 -2.3739 1.4076c -1.3655,0.5042 -2.9202,0.5042 -2.9202 0.5042c -0.7563,-0.0000 -1.5546,-0.1891 -1.5546 -0.1891c -0.7983,-0.1891 -1.5126,-0.5252 -1.5126 -0.5252c -0.5462,0.4622 -0.9244,1.0294 -0.9244 1.0294c -0.3782,0.5672 -0.3782,1.4076 -0.3782 1.4076c 0.0000,0.9664 0.7563,1.5966 0.7563 1.5966c 0.7563,0.6303 2.8571,0.6303 2.8571 0.6303h 3.9496 c 3.5714,0.0000 5.3571,1.1555 5.3571 1.1555c 1.7857,1.1555 1.7857,3.7185 1.7857 3.7185c 0.0000,1.4286 -0.7143,2.7101 -0.7143 2.7101c -0.7143,1.2815 -2.0588,2.2479 -2.0588 2.2479c -1.3445,0.9664 -3.2563,1.5336 -3.2563 1.5336c -1.9118,0.5672 -4.3067,0.5672 -4.3067 0.5672c -1.8908,-0.0000 -3.4454,-0.3571 -3.4454 -0.3571c -1.5546,-0.3571 -2.6681,-1.0714 -2.6681 -1.0714c -1.1134,-0.7143 -1.7227,-1.7227 -1.7227 -1.7227c -0.6092,-1.0084 -0.6092,-2.3529 -0.6092 -2.3529ZM 840.4517,563.9076 ZM 848.8971,551.2185 c 0.8824,0.0000 1.6597,-0.3361 1.6597 -0.3361c 0.7773,-0.3361 1.3866,-0.9664 1.3866 -0.9664c 0.6092,-0.6303 0.9454,-1.5336 0.9454 -1.5336c 0.3361,-0.9034 0.3361,-2.0378 0.3361 -2.0378c 0.0000,-2.2689 -1.2605,-3.5084 -1.2605 -3.5084c -1.2605,-1.2395 -3.0672,-1.2395 -3.0672 -1.2395c -1.8067,-0.0000 -3.0672,1.2395 -3.0672 1.2395c -1.2605,1.2395 -1.2605,3.5084 -1.2605 3.5084c 0.0000,1.1345 0.3361,2.0378 0.3361 2.0378c 0.3361,0.9034 0.9454,1.5336 0.9454 1.5336c 0.6092,0.6303 1.3866,0.9664 1.3866 0.9664c 0.7773,0.3361 1.6597,0.3361 1.6597 0.3361ZM 859.0651,560.0000 ZM 861.5021,554.7059 c 0.0000,-3.3613 3.0042,-5.1471 3.0042 -5.1471c 3.0042,-1.7857 9.5588,-2.5000 9.5588 -2.5000c 0.0000,-0.9664 -0.1891,-1.8908 -0.1891 -1.8908c -0.1891,-0.9244 -0.6723,-1.6387 -0.6723 -1.6387c -0.4832,-0.7143 -1.2815,-1.1555 -1.2815 -1.1555c -0.7983,-0.4412 -2.0588,-0.4412 -2.0588 -0.4412c -1.8067,-0.0000 -3.3403,0.6723 -3.3403 0.6723c -1.5336,0.6723 -2.7521,1.5126 -2.7521 1.5126l -1.3866,-2.3950 c 1.4286,-0.9244 3.4874,-1.7857 3.4874 -1.7857c 2.0588,-0.8613 4.5378,-0.8613 4.5378 -0.8613c 3.7395,0.0000 5.4202,2.2899 5.4202 2.2899c 1.6807,2.2899 1.6807,6.1134 1.6807 6.1134v 12.5210 h -2.8571 l -0.2941,-2.4370 h -0.0840 c -1.4706,1.2185 -3.1723,2.0798 -3.1723 2.0798c -1.7017,0.8613 -3.5924,0.8613 -3.5924 0.8613c -2.6050,-0.0000 -4.3067,-1.5126 -4.3067 -1.5126c -1.7017,-1.5126 -1.7017,-4.2857 -1.7017 -4.2857ZM 861.5021,554.7059 ZM 864.9055,554.4538 c 0.0000,1.7647 1.0294,2.5210 1.0294 2.5210c 1.0294,0.7563 2.5420,0.7563 2.5420 0.7563c 1.4706,0.0000 2.7941,-0.6933 2.7941 -0.6933c 1.3235,-0.6933 2.7941,-2.0378 2.7941 -2.0378v -5.6723 c -2.5630,0.3361 -4.3277,0.7983 -4.3277 0.7983c -1.7647,0.4622 -2.8361,1.0924 -2.8361 1.0924c -1.0714,0.6303 -1.5336,1.4496 -1.5336 1.4496c -0.4622,0.8193 -0.4622,1.7857 -0.4622 1.7857ZM 880.5777,560.0000 ZM 884.6113,542.3950 h -3.0252 v -2.6050 l 3.1933,-0.2101 l 0.4202,-5.7143 h 2.8992 v 5.7143 h 5.5042 v 2.8151 h -5.5042 v 11.3445 c 0.0000,1.8908 0.6933,2.9202 0.6933 2.9202c 0.6933,1.0294 2.4580,1.0294 2.4580 1.0294c 0.5462,0.0000 1.1765,-0.1681 1.1765 -0.1681c 0.6303,-0.1681 1.1345,-0.3782 1.1345 -0.3782l 0.6723,2.6050 c -0.8403,0.2941 -1.8277,0.5252 -1.8277 0.5252c -0.9874,0.2311 -1.9538,0.2311 -1.9538 0.2311c -1.6387,-0.0000 -2.7521,-0.5042 -2.7521 -0.5042c -1.1134,-0.5042 -1.8067,-1.3866 -1.8067 -1.3866c -0.6933,-0.8824 -0.9874,-2.1429 -0.9874 -2.1429c -0.2941,-1.2605 -0.2941,-2.7731 -0.2941 -2.7731v -11.3025 ZM 894.7794,560.0000 ZM 899.9895,535.3782 c -1.0084,-0.0000 -1.7017,-0.6303 -1.7017 -0.6303c -0.6933,-0.6303 -0.6933,-1.5966 -0.6933 -1.5966c 0.0000,-1.0084 0.6933,-1.6176 0.6933 -1.6176c 0.6933,-0.6092 1.7017,-0.6092 1.7017 -0.6092c 1.0084,0.0000 1.7017,0.6092 1.7017 0.6092c 0.6933,0.6092 0.6933,1.6176 0.6933 1.6176c 0.0000,0.9664 -0.6933,1.5966 -0.6933 1.5966c -0.6933,0.6303 -1.7017,0.6303 -1.7017 0.6303ZM 899.9895,535.3782 ZM 898.2248,539.5798 h 3.4454 v 20.4202 h -3.4454 v -20.4202 ZM 905.1155,560.0000 ZM 905.6197,539.5798 h 3.5714 l 3.8655,11.5966 c 0.4622,1.5126 0.9454,3.0252 0.9454 3.0252c 0.4832,1.5126 0.9454,2.9832 0.9454 2.9832h 0.1681 c 0.4622,-1.4706 0.9244,-2.9832 0.9244 -2.9832l 0.9244,-3.0252 l 3.8655,-11.5966 h 3.4034 l -7.2269,20.4202 h -4.0336 ZM 924.5693,560.0000 ZM 926.5021,549.8319 c 0.0000,-2.5210 0.7773,-4.5168 0.7773 -4.5168c 0.7773,-1.9958 2.0588,-3.3824 2.0588 -3.3824c 1.2815,-1.3866 2.9202,-2.1218 2.9202 -2.1218c 1.6387,-0.7353 3.4034,-0.7353 3.4034 -0.7353c 1.9328,0.0000 3.4664,0.6723 3.4664 0.6723c 1.5336,0.6723 2.5630,1.9328 2.5630 1.9328c 1.0294,1.2605 1.5756,3.0252 1.5756 3.0252c 0.5462,1.7647 0.5462,3.9496 0.5462 3.9496c 0.0000,1.1345 -0.1261,1.8908 -0.1261 1.8908h -13.7815 c 0.2101,3.3193 2.0378,5.2521 2.0378 5.2521c 1.8277,1.9328 4.7689,1.9328 4.7689 1.9328c 1.4706,0.0000 2.7101,-0.4412 2.7101 -0.4412c 1.2395,-0.4412 2.3739,-1.1555 2.3739 -1.1555l 1.2185,2.2689 c -1.3445,0.8403 -2.9832,1.4706 -2.9832 1.4706c -1.6387,0.6303 -3.7395,0.6303 -3.7395 0.6303c -2.0588,-0.0000 -3.8445,-0.7353 -3.8445 -0.7353c -1.7857,-0.7353 -3.1092,-2.1008 -3.1092 -2.1008c -1.3235,-1.3655 -2.0798,-3.3403 -2.0798 -3.3403c -0.7563,-1.9748 -0.7563,-4.4958 -0.7563 -4.4958ZM 926.5021,549.8319 ZM 940.7878,548.2773 c 0.0000,-3.1513 -1.3235,-4.8109 -1.3235 -4.8109c -1.3235,-1.6597 -3.7185,-1.6597 -3.7185 -1.6597c -1.0924,-0.0000 -2.0798,0.4412 -2.0798 0.4412c -0.9874,0.4412 -1.7857,1.2605 -1.7857 1.2605c -0.7983,0.8193 -1.3235,2.0168 -1.3235 2.0168c -0.5252,1.1975 -0.6933,2.7521 -0.6933 2.7521h 10.9244 ZM 953.8971,560.0000 ZM 957.9307,542.3950 h -3.0252 v -2.6050 l 3.1933,-0.2101 l 0.4202,-5.7143 h 2.8992 v 5.7143 h 5.5042 v 2.8151 h -5.5042 v 11.3445 c 0.0000,1.8908 0.6933,2.9202 0.6933 2.9202c 0.6933,1.0294 2.4580,1.0294 2.4580 1.0294c 0.5462,0.0000 1.1765,-0.1681 1.1765 -0.1681c 0.6303,-0.1681 1.1345,-0.3782 1.1345 -0.3782l 0.6723,2.6050 c -0.8403,0.2941 -1.8277,0.5252 -1.8277 0.5252c -0.9874,0.2311 -1.9538,0.2311 -1.9538 0.2311c -1.6387,-0.0000 -2.7521,-0.5042 -2.7521 -0.5042c -1.1134,-0.5042 -1.8067,-1.3866 -1.8067 -1.3866c -0.6933,-0.8824 -0.9874,-2.1429 -0.9874 -2.1429c -0.2941,-1.2605 -0.2941,-2.7731 -0.2941 -2.7731v -11.3025 ZM 968.0987,560.0000 ZM 969.1071,539.5798 h 3.5294 l 3.0252,11.8067 c 0.3361,1.4706 0.6303,2.8571 0.6303 2.8571c 0.2941,1.3866 0.5882,2.8151 0.5882 2.8151h 0.1681 c 0.3361,-1.4286 0.6723,-2.8361 0.6723 -2.8361c 0.3361,-1.4076 0.7143,-2.8361 0.7143 -2.8361l 3.1513,-11.8067 h 3.3613 l 3.1933,11.8067 c 0.3782,1.4706 0.7353,2.8571 0.7353 2.8571c 0.3571,1.3866 0.6933,2.8151 0.6933 2.8151h 0.1681 c 0.3361,-1.4286 0.6303,-2.8151 0.6303 -2.8151c 0.2941,-1.3866 0.6303,-2.8571 0.6303 -2.8571l 2.9832,-11.8067 h 3.2773 l -5.4622,20.4202 h -4.2017 l -2.9412,-10.9664 c -0.3782,-1.4706 -0.6933,-2.8992 -0.6933 -2.8992c -0.3151,-1.4286 -0.6933,-2.9832 -0.6933 -2.9832h -0.1681 c -0.3361,1.5546 -0.6723,3.0042 -0.6723 3.0042c -0.3361,1.4496 -0.7563,2.9202 -0.7563 2.9202l -2.8571,10.9244 h -4.0336 ZM 998.0987,560.0000 ZM 1000.0315,549.8319 c 0.0000,-2.5630 0.7773,-4.5588 0.7773 -4.5588c 0.7773,-1.9958 2.0798,-3.3824 2.0798 -3.3824c 1.3025,-1.3866 3.0042,-2.1008 3.0042 -2.1008c 1.7017,-0.7143 3.5924,-0.7143 3.5924 -0.7143c 1.8908,0.0000 3.5924,0.7143 3.5924 0.7143c 1.7017,0.7143 3.0042,2.1008 3.0042 2.1008c 1.3025,1.3866 2.0798,3.3824 2.0798 3.3824c 0.7773,1.9958 0.7773,4.5588 0.7773 4.5588c 0.0000,2.5210 -0.7773,4.5168 -0.7773 4.5168c -0.7773,1.9958 -2.0798,3.3613 -2.0798 3.3613c -1.3025,1.3655 -3.0042,2.0798 -3.0042 2.0798c -1.7017,0.7143 -3.5924,0.7143 -3.5924 0.7143c -1.8908,-0.0000 -3.5924,-0.7143 -3.5924 -0.7143c -1.7017,-0.7143 -3.0042,-2.0798 -3.0042 -2.0798c -1.3025,-1.3655 -2.0798,-3.3613 -2.0798 -3.3613c -0.7773,-1.9958 -0.7773,-4.5168 -0.7773 -4.5168ZM 1000.0315,549.8319 ZM 1003.6029,549.8319 c 0.0000,1.7647 0.4202,3.1933 0.4202 3.1933c 0.4202,1.4286 1.1975,2.4580 1.1975 2.4580c 0.7773,1.0294 1.8697,1.5966 1.8697 1.5966c 1.0924,0.5672 2.3950,0.5672 2.3950 0.5672c 1.3025,0.0000 2.3950,-0.5672 2.3950 -0.5672c 1.0924,-0.5672 1.8697,-1.5966 1.8697 -1.5966c 0.7773,-1.0294 1.1975,-2.4580 1.1975 -2.4580c 0.4202,-1.4286 0.4202,-3.1933 0.4202 -3.1933c 0.0000,-1.7647 -0.4202,-3.2143 -0.4202 -3.2143c -0.4202,-1.4496 -1.1975,-2.5000 -1.1975 -2.5000c -0.7773,-1.0504 -1.8697,-1.6176 -1.8697 -1.6176c -1.0924,-0.5672 -2.3950,-0.5672 -2.3950 -0.5672c -1.3025,-0.0000 -2.3950,0.5672 -2.3950 0.5672c -1.0924,0.5672 -1.8697,1.6176 -1.8697 1.6176c -0.7773,1.0504 -1.1975,2.5000 -1.1975 2.5000c -0.4202,1.4496 -0.4202,3.2143 -0.4202 3.2143Z"/></g><g stroke-linejoin="bevel" stroke-opacity="0.0" fill-opacity="1.0" stroke="rgb(0,0,0)" stroke-width="0.0" fill="rgb(0,0,0)" stroke-linecap="butt" stroke-miterlimit="10.0"><path d="M 1392.3144,560.0000 ZM 1401.8102,535.3782 h -8.3193 v -2.9412 h 20.1681 v 2.9412 h -8.3193 v 24.6218 h -3.5294 v -24.6218 ZM 1414.8354,560.0000 ZM 1418.2808,530.0840 h 3.4454 v 8.1513 l -0.1261,4.2017 c 1.4706,-1.3866 3.0672,-2.3739 3.0672 -2.3739c 1.5966,-0.9874 3.7395,-0.9874 3.7395 -0.9874c 3.2353,0.0000 4.7269,2.0168 4.7269 2.0168c 1.4916,2.0168 1.4916,5.9664 1.4916 5.9664v 12.9412 h -3.4454 v -12.4790 c 0.0000,-2.8992 -0.9244,-4.1807 -0.9244 -4.1807c -0.9244,-1.2815 -2.9412,-1.2815 -2.9412 -1.2815c -1.5966,-0.0000 -2.8151,0.7983 -2.8151 0.7983c -1.2185,0.7983 -2.7731,2.3529 -2.7731 2.3529v 14.7899 h -3.4454 v -29.9160 ZM 1437.6926,560.0000 ZM 1441.1380,539.5798 h 2.8571 l 0.2941,3.6975 h 0.1261 c 1.0504,-1.9328 2.5420,-3.0672 2.5420 -3.0672c 1.4916,-1.1345 3.2563,-1.1345 3.2563 -1.1345c 1.2185,0.0000 2.1849,0.4202 2.1849 0.4202l -0.6723,3.0252 c -0.5042,-0.1681 -0.9244,-0.2521 -0.9244 -0.2521c -0.4202,-0.0840 -1.0504,-0.0840 -1.0504 -0.0840c -1.3025,-0.0000 -2.7101,1.0504 -2.7101 1.0504c -1.4076,1.0504 -2.4580,3.6555 -2.4580 3.6555v 13.1092 h -3.4454 v -20.4202 ZM 1451.8522,560.0000 ZM 1453.7850,549.8319 c 0.0000,-2.5210 0.7773,-4.5168 0.7773 -4.5168c 0.7773,-1.9958 2.0588,-3.3824 2.0588 -3.3824c 1.2815,-1.3866 2.9202,-2.1218 2.9202 -2.1218c 1.6387,-0.7353 3.4034,-0.7353 3.4034 -0.7353c 1.9328,0.0000 3.4664,0.6723 3.4664 0.6723c 1.5336,0.6723 2.5630,1.9328 2.5630 1.9328c 1.0294,1.2605 1.5756,3.0252 1.5756 3.0252c 0.5462,1.7647 0.5462,3.9496 0.5462 3.9496c 0.0000,1.1345 -0.1261,1.8908 -0.1261 1.8908h -13.7815 c 0.2101,3.3193 2.0378,5.2521 2.0378 5.2521c 1.8277,1.9328 4.7689,1.9328 4.7689 1.9328c 1.4706,0.0000 2.7101,-0.4412 2.7101 -0.4412c 1.2395,-0.4412 2.3739,-1.1555 2.3739 -1.1555l 1.2185,2.2689 c -1.3445,0.8403 -2.9832,1.4706 -2.9832 1.4706c -1.6387,0.6303 -3.7395,0.6303 -3.7395 0.6303c -2.0588,-0.0000 -3.8445,-0.7353 -3.8445 -0.7353c -1.7857,-0.7353 -3.1092,-2.1008 -3.1092 -2.1008c -1.3235,-1.3655 -2.0798,-3.3403 -2.0798 -3.3403c -0.7563,-1.9748 -0.7563,-4.4958 -0.7563 -4.4958ZM 1453.7850,549.8319 ZM 1468.0707,548.2773 c 0.0000,-3.1513 -1.3235,-4.8109 -1.3235 -4.8109c -1.3235,-1.6597 -3.7185,-1.6597 -3.7185 -1.6597c -1.0924,-0.0000 -2.0798,0.4412 -2.0798 0.4412c -0.9874,0.4412 -1.7857,1.2605 -1.7857 1.2605c -0.7983,0.8193 -1.3235,2.0168 -1.3235 2.0168c -0.5252,1.1975 -0.6933,2.7521 -0.6933 2.7521h 10.9244 ZM 1472.6926,560.0000 ZM 1474.6254,549.8319 c 0.0000,-2.5210 0.7773,-4.5168 0.7773 -4.5168c 0.7773,-1.9958 2.0588,-3.3824 2.0588 -3.3824c 1.2815,-1.3866 2.9202,-2.1218 2.9202 -2.1218c 1.6387,-0.7353 3.4034,-0.7353 3.4034 -0.7353c 1.9328,0.0000 3.4664,0.6723 3.4664 0.6723c 1.5336,0.6723 2.5630,1.9328 2.5630 1.9328c 1.0294,1.2605 1.5756,3.0252 1.5756 3.0252c 0.5462,1.7647 0.5462,3.9496 0.5462 3.9496c 0.0000,1.1345 -0.1261,1.8908 -0.1261 1.8908h -13.7815 c 0.2101,3.3193 2.0378,5.2521 2.0378 5.2521c 1.8277,1.9328 4.7689,1.9328 4.7689 1.9328c 1.4706,0.0000 2.7101,-0.4412 2.7101 -0.4412c 1.2395,-0.4412 2.3739,-1.1555 2.3739 -1.1555l 1.2185,2.2689 c -1.3445,0.8403 -2.9832,1.4706 -2.9832 1.4706c -1.6387,0.6303 -3.7395,0.6303 -3.7395 0.6303c -2.0588,-0.0000 -3.8445,-0.7353 -3.8445 -0.7353c -1.7857,-0.7353 -3.1092,-2.1008 -3.1092 -2.1008c -1.3235,-1.3655 -2.0798,-3.3403 -2.0798 -3.3403c -0.7563,-1.9748 -0.7563,-4.4958 -0.7563 -4.4958ZM 1474.6254,549.8319 ZM 1488.9111,548.2773 c 0.0000,-3.1513 -1.3235,-4.8109 -1.3235 -4.8109c -1.3235,-1.6597 -3.7185,-1.6597 -3.7185 -1.6597c -1.0924,-0.0000 -2.0798,0.4412 -2.0798 0.4412c -0.9874,0.4412 -1.7857,1.2605 -1.7857 1.2605c -0.7983,0.8193 -1.3235,2.0168 -1.3235 2.0168c -0.5252,1.1975 -0.6933,2.7521 -0.6933 2.7521h 10.9244 Z"/></g></svg>